<svg width="199" height="57" viewBox="0 0 199 57" fill="none" xmlns="http://www.w3.org/2000/svg">
<g clip-path="url(#clip0_326_4949)">
<path d="M37.2698 35.6783V55.0456C37.2698 55.9472 36.5378 56.6792 35.6361 56.6792H21.065C20.1633 56.6792 19.4313 55.9472 19.4313 55.0456V42.3602C19.4313 37.8588 23.0869 34.2031 27.5884 34.2031H35.7923C36.6069 34.2031 37.2675 34.8637 37.2675 35.6783H37.2698Z" fill="#6753A3"/>
<path d="M71.6839 25.297C71.5902 30.8921 69.2736 35.9493 65.5957 39.6428C65.1627 40.0758 63.5246 41.5756 62.7635 42.1022C62.1476 42.5285 61.2147 42.6803 60.563 42.3053L45.2911 31.2826C44.6952 30.9389 44.6952 30.0819 45.2911 29.736L52.2676 25.7099C52.8634 25.3662 52.8634 24.507 52.2676 24.1633L38.357 16.1334C37.7611 15.7897 37.0179 16.2204 37.0179 16.9078V27.5868C37.0179 27.8479 36.9621 28.0957 36.8617 28.3189C36.8528 28.3389 36.8438 28.359 36.8327 28.3791C36.8126 28.4193 36.7925 28.4572 36.7702 28.4929C36.6541 28.6916 36.5001 28.8656 36.3171 29.004C36.2881 29.0263 36.2591 29.0464 36.2301 29.0665C36.2033 29.0866 36.1743 29.1044 36.1453 29.1201C36.1252 29.1334 36.1051 29.1446 36.0828 29.1558C36.027 29.187 35.9712 29.2138 35.9132 29.2383C35.8909 29.2473 35.8686 29.2562 35.8462 29.2629C35.8195 29.274 35.7904 29.283 35.7637 29.2919C35.7458 29.2964 35.7302 29.3031 35.7123 29.3075C35.6833 29.3142 35.6565 29.3231 35.6275 29.3276C35.5874 29.3365 35.5472 29.3455 35.5048 29.3522H35.4981C35.4624 29.3589 35.4244 29.3633 35.3865 29.3656C35.3374 29.37 35.2838 29.3722 35.2325 29.3722H21.0452C20.0587 29.3722 19.2598 28.5733 19.2598 27.5868V5.92531C19.2598 4.93887 20.0587 4.13989 21.0452 4.13989H50.6004C52.975 4.13989 55.2648 4.53268 57.4051 5.25801C65.7787 8.09235 71.8446 15.9995 71.6839 25.297Z" fill="url(#paint0_linear_326_4949)"/>
<path d="M57.405 5.25801C37.0469 3.43465 36.942 17.5573 36.942 17.5573L36.9487 17.5662L37.0179 17.6666V27.5846C37.0179 27.8457 36.9621 28.0934 36.8617 28.3166C36.8527 28.3367 36.8438 28.3568 36.8327 28.3769C36.8148 28.417 36.7925 28.455 36.7702 28.4907C36.6541 28.6893 36.5001 28.8634 36.3171 29.0018C36.2881 29.0241 36.2591 29.0442 36.2301 29.0643C36.2033 29.0843 36.1743 29.1022 36.1453 29.1178C36.1252 29.1312 36.1051 29.1424 36.0828 29.1535C36.027 29.1848 35.9712 29.2115 35.9132 29.2361C35.8909 29.245 35.8685 29.254 35.8462 29.2606C35.8194 29.2718 35.7904 29.2807 35.7636 29.2897C35.7458 29.2941 35.7302 29.3008 35.7123 29.3053C35.6833 29.312 35.6565 29.3209 35.6275 29.3254C35.5873 29.3343 35.5472 29.3432 35.5048 29.3499H35.4981C35.4624 29.3566 35.4244 29.3611 35.3865 29.3633C35.3374 29.3678 35.2838 29.37 35.2325 29.37H21.0452C20.0587 29.37 19.2598 28.571 19.2598 27.5846V5.92531C19.2598 4.93886 20.0587 4.13989 21.0452 4.13989H50.6004C52.975 4.13989 55.2648 4.53268 57.405 5.25801Z" fill="url(#paint1_linear_326_4949)"/>
<path d="M77.2119 40.354L79.1014 36.1293C80.6865 37.3889 82.4769 38.0187 84.4725 38.0187C86.5388 38.0187 87.572 37.2828 87.572 35.8108C87.572 34.9475 87.2607 34.2398 86.6379 33.6879C86.0152 33.1359 84.8051 32.4848 83.0076 31.7347C79.0872 30.1071 77.127 27.8285 77.127 24.8988C77.127 22.9315 77.8771 21.4029 79.3774 20.3131C80.8776 19.2092 82.7953 18.6572 85.1306 18.6572C87.4942 18.6572 89.7162 19.188 91.7967 20.2494L90.2682 24.368C89.1076 23.3773 87.4942 22.8819 85.4278 22.8819C83.5738 22.8819 82.6467 23.6179 82.6467 25.0898C82.6467 25.6701 82.951 26.1938 83.5596 26.6608C84.1682 27.1279 85.4703 27.7577 87.4659 28.5503C89.4615 29.3287 90.898 30.277 91.7755 31.3951C92.653 32.5132 93.0918 33.8648 93.0918 35.4499C93.0918 37.5587 92.3063 39.2217 90.7353 40.4389C89.1784 41.6419 87.0554 42.2434 84.3663 42.2434C82.852 42.2434 81.6348 42.1161 80.7148 41.8613C79.809 41.6207 78.6414 41.1183 77.2119 40.354ZM95.8516 30.3973C95.8516 26.9297 96.8494 24.1062 98.845 21.9266C100.855 19.747 103.501 18.6572 106.785 18.6572C110.238 18.6572 112.92 19.7045 114.831 21.7992C116.742 23.8939 117.697 26.7599 117.697 30.3973C117.697 34.0205 116.72 36.9006 114.767 39.0378C112.828 41.1749 110.168 42.2434 106.785 42.2434C103.332 42.2434 100.642 41.1678 98.7176 39.0165C96.807 36.8511 95.8516 33.978 95.8516 30.3973ZM101.371 30.3973C101.371 35.4075 103.176 37.9126 106.785 37.9126C108.441 37.9126 109.75 37.2615 110.712 35.9594C111.689 34.6574 112.177 32.8033 112.177 30.3973C112.177 25.4578 110.38 22.9881 106.785 22.9881C105.129 22.9881 103.813 23.6391 102.836 24.9412C101.86 26.2433 101.371 28.062 101.371 30.3973ZM122.877 10.6111L128.184 9.33737V34.898C128.184 37.7003 129.02 39.3704 130.69 39.9082C129.869 41.465 128.468 42.2434 126.486 42.2434C124.08 42.2434 122.877 40.5734 122.877 37.2332V10.6111ZM144.152 42.2413H142.251L132.027 19.1946H137.815L143.222 33.01L149.032 19.1946H154.63L144.152 42.2413ZM177.782 32.1228H161.622C161.72 33.9254 162.34 35.3266 163.481 36.3265C164.621 37.3264 166.156 37.8263 168.086 37.8263C170.494 37.8263 172.325 37.1997 173.578 35.9463L175.627 39.981C173.768 41.4879 170.994 42.2413 167.304 42.2413C163.854 42.2413 161.122 41.2344 159.108 39.2205C157.108 37.1926 156.108 34.369 156.108 30.7497C156.108 27.1867 157.207 24.2997 159.404 22.0887C161.615 19.8777 164.262 18.7722 167.347 18.7722C170.628 18.7722 173.261 19.7509 175.247 21.7084C177.233 23.666 178.226 26.1586 178.226 29.1865C178.226 29.8343 178.078 30.813 177.782 32.1228ZM161.812 28.1514H172.923C172.557 24.8419 170.726 23.1872 167.431 23.1872C164.417 23.1872 162.544 24.8419 161.812 28.1514Z" fill="#333537"/>
<path d="M134.933 52.8232L132.638 49.2712C132.407 49.2673 132.084 49.2536 131.669 49.2301V52.8232H130.084V44.222C130.17 44.222 130.501 44.2083 131.076 44.1809C131.651 44.1496 132.115 44.1339 132.467 44.1339C134.652 44.1339 135.744 44.9794 135.744 46.6703C135.744 47.1791 135.593 47.6429 135.292 48.0617C134.99 48.4805 134.61 48.7761 134.153 48.9483L136.695 52.8232H134.933ZM131.669 45.5489V47.9384C131.951 47.9619 132.166 47.9737 132.315 47.9737C132.953 47.9737 133.419 47.8836 133.712 47.7036C134.01 47.5235 134.158 47.1732 134.158 46.6526C134.158 46.2299 134 45.9344 133.683 45.7661C133.366 45.5978 132.867 45.5136 132.186 45.5136C132.021 45.5136 131.849 45.5254 131.669 45.5489ZM142.959 50.1284H138.468C138.495 50.6294 138.667 51.0188 138.984 51.2967C139.302 51.5746 139.728 51.7136 140.264 51.7136C140.934 51.7136 141.443 51.5394 141.791 51.1911L142.36 52.3125C141.844 52.7313 141.073 52.9407 140.047 52.9407C139.088 52.9407 138.329 52.6608 137.769 52.1011C137.213 51.5375 136.935 50.7527 136.935 49.7468C136.935 48.7565 137.241 47.9541 137.851 47.3396C138.466 46.7251 139.202 46.4178 140.059 46.4178C140.971 46.4178 141.703 46.6898 142.255 47.2339C142.807 47.778 143.083 48.4708 143.083 49.3123C143.083 49.4923 143.041 49.7644 142.959 50.1284ZM138.521 49.0246H141.609C141.507 48.1048 140.998 47.6449 140.082 47.6449C139.245 47.6449 138.724 48.1048 138.521 49.0246ZM146.869 52.9407H146.341L143.499 46.5352H145.108L146.611 50.375L148.226 46.5352H149.782L146.869 52.9407ZM152.13 44.0987C152.365 44.0987 152.564 44.1828 152.729 44.3511C152.897 44.5155 152.981 44.7152 152.981 44.95C152.981 45.1849 152.897 45.3864 152.729 45.5547C152.564 45.7191 152.365 45.8013 152.13 45.8013C151.895 45.8013 151.694 45.7191 151.525 45.5547C151.361 45.3864 151.279 45.1849 151.279 44.95C151.279 44.7152 151.361 44.5155 151.525 44.3511C151.694 44.1828 151.895 44.0987 152.13 44.0987ZM151.373 52.8232V47.7388H150.568V46.5352H152.858V52.8232H151.373ZM160.185 50.1284H155.694C155.721 50.6294 155.893 51.0188 156.21 51.2967C156.528 51.5746 156.954 51.7136 157.49 51.7136C158.16 51.7136 158.669 51.5394 159.017 51.1911L159.586 52.3125C159.07 52.7313 158.299 52.9407 157.273 52.9407C156.314 52.9407 155.555 52.6608 154.995 52.1011C154.439 51.5375 154.161 50.7527 154.161 49.7468C154.161 48.7565 154.467 47.9541 155.077 47.3396C155.692 46.7251 156.428 46.4178 157.285 46.4178C158.197 46.4178 158.929 46.6898 159.481 47.2339C160.033 47.778 160.309 48.4708 160.309 49.3123C160.309 49.4923 160.267 49.7644 160.185 50.1284ZM155.747 49.0246H158.835C158.733 48.1048 158.224 47.6449 157.308 47.6449C156.471 47.6449 155.95 48.1048 155.747 49.0246ZM167.665 52.9407H167.131L165.405 49.0774L163.684 52.9407H163.144L160.772 46.5352H162.317L163.579 50.2869L165.117 46.5352H165.645L167.237 50.3104L168.599 46.5352H170.043L167.665 52.9407ZM170.53 52.4181L171.053 51.2498C171.491 51.5981 171.986 51.7723 172.538 51.7723C173.11 51.7723 173.395 51.5688 173.395 51.1617C173.395 50.9229 173.309 50.7272 173.137 50.5746C172.965 50.4219 172.63 50.2419 172.133 50.0344C171.049 49.5843 170.507 48.9541 170.507 48.1439C170.507 47.5999 170.714 47.1771 171.129 46.8758C171.544 46.5704 172.074 46.4178 172.72 46.4178C173.374 46.4178 173.988 46.5646 174.564 46.8581L174.141 47.9971C173.82 47.7232 173.374 47.5862 172.802 47.5862C172.29 47.5862 172.033 47.7897 172.033 48.1968C172.033 48.3572 172.117 48.5021 172.286 48.6312C172.454 48.7604 172.814 48.9346 173.366 49.1538C173.918 49.369 174.315 49.6313 174.558 49.9405C174.801 50.2497 174.922 50.6235 174.922 51.0619C174.922 51.6451 174.705 52.105 174.27 52.4416C173.84 52.7743 173.253 52.9407 172.509 52.9407C172.09 52.9407 171.753 52.9054 171.499 52.835C171.249 52.7684 170.926 52.6295 170.53 52.4181Z" fill="#6753A3"/>
<path d="M44.8792 49.5992L44.8613 35.0994C44.8613 34.5036 45.542 34.1621 46.0196 34.5192L71.2073 54.4801C72.1111 55.259 71.5599 56.7409 70.3681 56.7409H53.7928L45.4215 50.6593C45.0823 50.4138 44.8814 50.0188 44.8814 49.5992H44.8792Z" fill="url(#paint2_linear_326_4949)"/>
</g>
<defs>
<linearGradient id="paint0_linear_326_4949" x1="36.6341" y1="6.1217" x2="56.6374" y2="46.7755" gradientUnits="userSpaceOnUse">
<stop stop-color="#3D368C"/>
<stop offset="1" stop-color="#6753A3"/>
</linearGradient>
<linearGradient id="paint1_linear_326_4949" x1="45.0545" y1="-3.02631" x2="18.088" y2="30.2761" gradientUnits="userSpaceOnUse">
<stop stop-color="#6753A3"/>
<stop offset="0.29" stop-color="#5E4D9E"/>
<stop offset="0.75" stop-color="#483D92"/>
<stop offset="0.93" stop-color="#3D368C"/>
</linearGradient>
<linearGradient id="paint2_linear_326_4949" x1="70.604" y1="45.9563" x2="56.6563" y2="45.688" gradientUnits="userSpaceOnUse">
<stop offset="0.07" stop-color="#3D368C"/>
<stop offset="0.54" stop-color="#544698"/>
<stop offset="1" stop-color="#6753A3"/>
</linearGradient>
<clipPath id="clip0_326_4949">
<rect width="160.484" height="55.9214" fill="white" transform="translate(19.2581 0.817627)"/>
</clipPath>
</defs>
</svg>
