<svg width="48" height="48" viewBox="0 0 48 48" fill="none" xmlns="http://www.w3.org/2000/svg">
<g clip-path="url(#clip0_320_2849)">
<g clip-path="url(#clip1_320_2849)">
<path d="M13.2258 25.6099C12.8131 25.8161 12.4452 26.102 12.1434 26.4509C11.8416 26.7998 11.6117 27.205 11.467 27.6431C11.3125 28.2709 11.2396 28.916 11.2503 29.5624L11.2525 37.1276C11.2535 37.7238 11.491 38.2953 11.9128 38.7166C12.3346 39.1379 12.9064 39.3747 13.5025 39.375H18.856C18.5188 38.9138 18.2452 38.4093 18.0427 37.875H13.5025C13.3041 37.8751 13.1136 37.7965 12.973 37.6564C12.8324 37.5163 12.7531 37.3261 12.7525 37.1276L12.7499 29.5481C12.7416 29.0473 12.7945 28.5474 12.9074 28.0594C13.0818 27.593 13.4196 27.2059 13.858 26.97L17.2405 25.4411L20.9902 29.271C21.0803 29.3752 21.1914 29.4592 21.3161 29.5176C21.4409 29.576 21.5766 29.6075 21.7143 29.61H21.7334C21.9814 29.6103 22.2202 29.5165 22.4017 29.3475L23.9999 28.2101L25.5974 29.3483C25.779 29.5173 26.018 29.6111 26.266 29.6107H26.2848C26.4226 29.6083 26.5584 29.5767 26.6832 29.5183C26.808 29.4598 26.9192 29.3757 27.0093 29.2714L30.7593 25.4411L34.1268 26.9636C34.5711 27.1997 34.9142 27.5895 35.092 28.0601C35.2057 28.5526 35.2586 29.0571 35.2495 29.5624L35.2473 37.128C35.2467 37.3265 35.1674 37.5166 35.0268 37.6567C34.8862 37.7969 34.6958 37.8755 34.4973 37.8754H29.9572C29.7547 38.4097 29.4811 38.9142 29.1438 39.3754H34.4973C35.0934 39.3751 35.6651 39.1383 36.0869 38.7171C36.5087 38.2959 36.7462 37.7245 36.7473 37.1284L36.7499 29.5763C36.7614 28.9252 36.6885 28.2754 36.5332 27.6431C36.3874 27.2026 36.1555 26.7954 35.8511 26.4452C35.5467 26.095 35.1757 25.8088 34.7598 25.6031L28.1249 22.6042V20.9036C29.2844 19.3166 29.9995 17.0483 29.9995 14.4844C30.0421 12.7328 29.388 11.0359 28.1808 9.76612C27.7268 9.29277 27.1829 8.91484 26.581 8.65449C25.979 8.39415 25.3311 8.25663 24.6753 8.25H23.3238C22.6681 8.25668 22.0204 8.39419 21.4186 8.65447C20.8167 8.91475 20.2729 9.29256 19.819 9.76575C19.2192 10.3977 18.7498 11.1416 18.4376 11.9551C18.1255 12.7685 17.9768 13.6355 17.9999 14.5065C17.9999 17.0587 18.715 19.3215 19.8745 20.9062V22.6039L13.2258 25.6099ZM21.3749 22.3991C22.1384 22.9523 23.0572 23.2501 24 23.25C24.9428 23.2499 25.8615 22.952 26.6249 22.3988V23.259L23.9954 25.716L21.3749 23.2605V22.3991Z" fill="#534599"/>
<path d="M23.9999 30.75C23.0357 30.75 22.0932 31.0359 21.2915 31.5716C20.4898 32.1073 19.865 32.8686 19.496 33.7594C19.127 34.6502 19.0305 35.6304 19.2186 36.5761C19.4067 37.5217 19.871 38.3904 20.5528 39.0721C21.2345 39.7539 22.1032 40.2182 23.0488 40.4063C23.9945 40.5944 24.9747 40.4979 25.8655 40.1289C26.7563 39.7599 27.5176 39.1351 28.0533 38.3334C28.589 37.5317 28.8749 36.5892 28.8749 35.625C28.8734 34.3325 28.3593 33.0934 27.4454 32.1795C26.5315 31.2656 25.2924 30.7515 23.9999 30.75ZM26.0763 35.5163L23.6043 37.0163C23.4508 37.1066 23.2704 37.1403 23.0947 37.1116C22.9189 37.0828 22.7587 36.9933 22.642 36.8587L21.739 35.787C21.6741 35.7119 21.6247 35.6247 21.5937 35.5303C21.5627 35.436 21.5508 35.3364 21.5586 35.2375C21.5664 35.1385 21.5938 35.042 21.6392 34.9537C21.6845 34.8654 21.747 34.787 21.8229 34.723C21.8988 34.659 21.9867 34.6107 22.0814 34.5809C22.1761 34.5511 22.2758 34.5405 22.3747 34.5495C22.4735 34.5586 22.5696 34.5871 22.6574 34.6336C22.7451 34.6801 22.8227 34.7435 22.8858 34.8202L23.3751 35.4007L25.2985 34.2337C25.3828 34.1813 25.4766 34.1461 25.5745 34.1302C25.6724 34.1143 25.7726 34.118 25.8691 34.141C25.9656 34.1641 26.0565 34.2061 26.1367 34.2645C26.2169 34.323 26.2846 34.3968 26.3361 34.4816C26.3875 34.5665 26.4216 34.6607 26.4364 34.7588C26.4512 34.8569 26.4464 34.957 26.4222 35.0532C26.398 35.1494 26.355 35.2399 26.2956 35.3194C26.2363 35.3989 26.1617 35.4658 26.0763 35.5163ZM0.000646459 32.9674C-0.00304969 33.5681 0.231675 34.1458 0.653334 34.5737C1.07499 35.0016 1.64916 35.2448 2.2499 35.25H9.8669V33.75H2.2499C2.04932 33.7427 1.85981 33.6562 1.72279 33.5096C1.58576 33.3629 1.51237 33.168 1.51865 32.9674V25.8409C1.5109 25.4017 1.55533 24.9631 1.65102 24.5344C1.78593 24.1495 2.05481 23.8261 2.40852 23.6231L7.6094 21.1785L10.4159 24.5366C10.4885 24.6206 10.5782 24.6879 10.6791 24.7341C10.78 24.7802 10.8897 24.8042 11.0006 24.8042C11.1116 24.8042 11.2212 24.7804 11.3222 24.7343C11.4231 24.6882 11.5129 24.6209 11.5855 24.537L14.3995 21.1781L16.9274 22.3661L18.7499 21.5625L14.7074 19.6613V18.1898C15.7987 16.6158 16.3623 14.736 16.3169 12.8212C16.3322 12.0874 16.2017 11.3577 15.9328 10.6747C15.664 9.99163 15.2623 9.36874 14.7509 8.84213C14.339 8.42079 13.8477 8.08525 13.3053 7.85489C12.763 7.62452 12.1804 7.50391 11.5911 7.5H10.4185C9.82927 7.50395 9.24665 7.62463 8.70431 7.85506C8.16196 8.08549 7.67066 8.4211 7.25877 8.8425C6.74588 9.3715 6.34331 9.99721 6.07446 10.6832C5.80561 11.3692 5.67587 12.1019 5.69277 12.8385C5.64822 14.7486 6.21184 16.6235 7.30227 18.1924V19.6616L1.74102 22.2765C1.37244 22.4693 1.0455 22.7329 0.778911 23.0522C0.51232 23.3715 0.311314 23.7402 0.187396 24.1372C0.0541357 24.6998 -0.00859643 25.2767 0.000646459 25.8547V32.9674ZM8.82065 19.6114C9.47291 20.0283 10.2309 20.2499 11.005 20.2499C11.7792 20.2499 12.5371 20.0283 13.1894 19.6114V20.2714L11.002 22.8821L8.82027 20.2721L8.82065 19.6114ZM40.6971 18.1901C41.7886 16.6162 42.3523 14.7364 42.307 12.8216C42.3223 12.0877 42.1918 11.3581 41.923 10.6751C41.6541 9.99201 41.2524 9.36911 40.741 8.8425C40.3291 8.4211 39.8378 8.08549 39.2955 7.85506C38.7531 7.62463 38.1705 7.50395 37.5813 7.5H36.4086C35.8193 7.50391 35.2366 7.62456 34.6942 7.85499C34.1518 8.08542 33.6605 8.42105 33.2485 8.8425C32.7356 9.3715 32.3331 9.99721 32.0642 10.6832C31.7954 11.3692 31.6656 12.1019 31.6825 12.8385C31.6381 14.7487 32.2018 16.6235 33.2924 18.1924V19.6616L29.2499 21.5621L31.0724 22.3665L33.5991 21.1785L36.406 24.5366C36.4777 24.622 36.5672 24.6906 36.6683 24.7377C36.7694 24.7847 36.8795 24.809 36.991 24.8089C37.1024 24.809 37.2125 24.7848 37.3135 24.7378C37.4145 24.6908 37.504 24.6223 37.5756 24.537L40.3896 21.1781L45.5763 23.616C45.9371 23.8179 46.2118 24.1446 46.3488 24.5348C46.4446 24.968 46.489 25.4111 46.4811 25.8547V32.9674C46.4874 33.168 46.414 33.3629 46.277 33.5096C46.14 33.6562 45.9505 33.7427 45.7499 33.75H38.1329V35.25H45.7499C46.3506 35.2448 46.9248 35.0016 47.3465 34.5737C47.7681 34.1458 48.0028 33.5681 47.9991 32.9674V25.8686C48.0092 25.286 47.9464 24.7044 47.8124 24.1372C47.6874 23.7376 47.4844 23.3668 47.2151 23.0461C46.9459 22.7254 46.6157 22.4613 46.2438 22.269L40.6975 19.6616L40.6971 18.1901ZM39.1795 20.2714L36.9918 22.8821L34.8104 20.2721V19.6114C35.4627 20.0283 36.2206 20.2498 36.9948 20.2498C37.7689 20.2498 38.5269 20.0283 39.1791 19.6114L39.1795 20.2714Z" fill="#534599"/>
</g>
</g>
<defs>
<clipPath id="clip0_320_2849">
<rect width="48" height="48" fill="white"/>
</clipPath>
<clipPath id="clip1_320_2849">
<rect width="48" height="48" fill="white"/>
</clipPath>
</defs>
</svg>
