<svg width="48" height="48" viewBox="0 0 48 48" fill="none" xmlns="http://www.w3.org/2000/svg">
<g clip-path="url(#clip0_320_2840)">
<path d="M24 2C22.1 2 20.559 3.541 20.559 5.441C20.559 6.888 21.463 8.18 22.823 8.675V12.808C22.823 13.461 23.348 13.986 24.001 13.986C24.653 13.986 25.179 13.461 25.179 12.808V8.678C26.538 8.182 27.444 6.889 27.443 5.442C27.441 3.541 25.9 2 24 2ZM37.063 7.428C36.167 7.442 35.313 7.804 34.68 8.438C33.658 9.461 33.384 11.016 33.996 12.327L31.076 15.251C30.615 15.713 30.614 16.456 31.076 16.917C31.538 17.378 32.281 17.379 32.742 16.917L35.664 13.993C36.976 14.602 38.529 14.327 39.551 13.304C40.895 11.959 40.893 9.781 39.549 8.437C38.891 7.777 37.994 7.414 37.063 7.428ZM10.764 7.443C9.888 7.471 9.055 7.831 8.436 8.451C7.092 9.796 7.092 11.975 8.437 13.319L8.438 13.32C9.462 14.342 11.016 14.616 12.327 14.004L15.251 16.924C15.713 17.385 16.456 17.386 16.917 16.924C17.378 16.462 17.379 15.719 16.917 15.258L13.991 12.336C14.601 11.024 14.326 9.472 13.303 8.449C12.631 7.778 11.712 7.414 10.764 7.443ZM19.852 17.514C19.13 17.528 18.422 17.721 17.793 18.077C17.422 18.279 17.086 18.535 16.797 18.837C16.689 18.95 16.59 19.072 16.496 19.194C16.481 19.211 16.467 19.228 16.453 19.245C16.441 19.261 16.429 19.276 16.418 19.292C16.104 19.722 15.87 20.206 15.73 20.72C15.721 20.748 15.712 20.774 15.705 20.802C15.304 22.229 15.537 23.681 16.002 24.948C16.741 26.962 18.078 28.651 19.584 30.046C20.307 30.715 21.082 31.297 21.879 31.823C22.504 32.259 23.243 32.487 24 32.487C24.758 32.487 25.496 32.258 26.121 31.823C26.918 31.297 27.693 30.715 28.416 30.046C29.922 28.651 31.259 26.962 31.998 24.948C32.463 23.681 32.696 22.229 32.295 20.802C32.286 20.774 32.277 20.748 32.27 20.72C32.129 20.206 31.895 19.722 31.579 19.292C31.567 19.276 31.558 19.261 31.546 19.245C31.532 19.228 31.518 19.211 31.503 19.194C31.409 19.072 31.313 18.95 31.204 18.837C30.915 18.535 30.579 18.279 30.208 18.077C29.578 17.721 28.869 17.527 28.145 17.514C28.122 17.514 28.1 17.514 28.077 17.514C26.261 17.514 24.636 18.643 24.003 20.346C23.37 18.643 21.744 17.513 19.927 17.514C19.903 17.514 19.879 17.514 19.855 17.514H19.852ZM5.441 20.559C3.541 20.559 2 22.1 2 24C2 25.9 3.541 27.441 5.441 27.441C6.888 27.442 8.182 26.537 8.677 25.177H12.808C13.461 25.177 13.986 24.652 13.986 23.999C13.986 23.346 13.461 22.821 12.808 22.821H8.676C8.181 21.463 6.888 20.559 5.441 20.559ZM42.455 20.559C41.047 20.601 39.807 21.498 39.324 22.823H35.191C34.539 22.823 34.013 23.348 34.013 24.001C34.013 24.653 34.538 25.179 35.191 25.179H39.322C39.818 26.538 41.111 27.444 42.558 27.443C44.459 27.441 46 25.9 46 24C46 22.1 44.459 20.559 42.559 20.559C42.523 20.558 42.49 20.558 42.455 20.559ZM31.916 30.73C31.615 30.73 31.314 30.845 31.084 31.076C30.623 31.538 30.622 32.281 31.084 32.742L34.008 35.664C33.399 36.976 33.674 38.529 34.697 39.551C36.042 40.895 38.22 40.893 39.564 39.549C40.908 38.204 40.908 36.025 39.563 34.681L39.562 34.68C38.539 33.658 36.984 33.384 35.673 33.996L32.749 31.076C32.52 30.846 32.217 30.73 31.916 30.73ZM16.09 30.738C15.789 30.738 15.488 30.853 15.258 31.084L12.336 34.01C11.024 33.4 9.472 33.674 8.449 34.698C7.106 36.043 7.107 38.221 8.451 39.565C9.796 40.909 11.975 40.909 13.319 39.564L13.32 39.563C14.342 38.54 14.616 36.985 14.004 35.674L16.924 32.75C17.385 32.288 17.386 31.545 16.924 31.084C16.693 30.854 16.391 30.738 16.09 30.738ZM24 34.014C23.347 34.014 22.822 34.539 22.822 35.192V39.596C22.822 39.797 22.885 39.978 22.972 40.143C21.796 40.464 20.878 41.383 20.558 42.559C20.559 44.459 22.1 46 24 46C25.9 46 27.441 44.459 27.441 42.559C27.121 41.383 26.203 40.464 25.027 40.143C25.115 39.978 25.177 39.797 25.177 39.596V35.192C25.178 34.539 24.652 34.014 24 34.014Z" fill="#534599"/>
</g>
<defs>
<clipPath id="clip0_320_2840">
<rect width="48" height="48" fill="white"/>
</clipPath>
</defs>
</svg>
