<svg width="188" height="147" viewBox="0 0 188 147" fill="none" xmlns="http://www.w3.org/2000/svg">
<g style="mix-blend-mode:luminosity">
<path d="M58.6587 51.4353H73.9099V54.3578H68.044V70.1391H64.5245V54.3578H58.6587V51.4353ZM73.03 56.4035H75.9629V59.0337C75.9629 58.7415 76.2562 58.4492 76.5495 57.8647C76.8428 57.2802 77.1361 57.2802 77.4294 56.988C77.7227 56.6957 78.3092 56.4035 78.6025 56.4035C78.8958 56.1112 79.4824 56.1112 80.069 56.1112C80.3623 56.1112 80.6556 56.1112 80.6556 56.1112H80.9489V59.0337C80.6556 59.0337 80.6556 59.0337 80.3623 59.0337C80.069 59.0337 80.069 59.0337 79.7757 59.0337C79.1891 59.0337 78.8958 59.0337 78.3092 59.326C77.7227 59.6182 77.4294 59.9105 77.1361 60.2027C76.8428 60.4949 76.5495 61.0794 76.2562 61.6639C75.9629 62.2484 75.9629 62.8329 75.9629 63.7097V70.1391H73.03V56.4035ZM94.7336 70.1391H91.8007V68.3856C91.5074 68.9701 90.9208 69.5546 90.0409 70.1391C89.4543 70.4313 88.5744 70.7236 87.6946 70.7236C85.9348 70.7236 84.7617 70.4313 83.8818 69.2623C83.0019 68.0934 82.7086 66.9244 82.7086 65.1709V56.6957H85.6415V64.8786C85.6415 66.0476 85.9348 66.9244 86.2281 67.5089C86.8147 68.0934 87.4013 68.3856 88.2812 68.3856C88.8677 68.3856 89.4543 68.3856 89.7476 68.0934C90.0409 67.8011 90.6275 67.5089 90.6275 67.2166C90.9208 66.9244 91.2141 66.6321 91.2141 66.0476C91.2141 65.4631 91.5074 65.1709 91.5074 64.5864V56.6957H94.4403V70.1391H94.7336ZM99.7195 65.7554C99.7195 66.6321 100.013 67.2166 100.599 67.5089C101.186 67.8011 101.773 68.0934 102.652 68.0934C102.946 68.0934 103.239 68.0934 103.532 68.0934C103.826 68.0934 104.119 68.0934 104.412 67.8011C104.705 67.8011 104.999 67.5089 105.292 67.2166C105.585 66.9244 105.585 66.6321 105.585 66.3399C105.585 66.0476 105.292 65.7554 105.292 65.4631C104.999 65.1709 104.705 65.1709 104.412 64.8786C104.119 64.8786 103.532 64.5864 102.946 64.5864C102.359 64.5864 101.773 64.2941 101.479 64.2941C100.893 64.2941 100.306 64.0019 100.013 63.7097C99.7195 63.4174 99.1329 63.4174 98.5464 63.1252C98.2531 62.8329 97.6665 62.5407 97.6665 61.9562C97.3732 61.3717 97.3732 60.7872 97.3732 60.2027C97.3732 59.326 97.6665 58.7415 97.9598 58.4492C98.2531 58.157 98.8397 57.5725 99.4262 57.2802C100.013 56.988 100.599 56.6957 101.186 56.6957C101.773 56.6957 102.652 56.4035 103.239 56.4035C103.826 56.4035 104.705 56.4035 105.292 56.6957C105.879 56.6957 106.465 56.988 107.052 57.2802C107.638 57.5725 107.932 58.157 108.225 58.4492C108.518 59.0337 108.812 59.6182 108.812 60.4949H105.585C105.585 59.9105 104.999 59.326 104.705 59.0337C103.826 58.7415 103.239 58.4492 102.652 58.4492C102.359 58.4492 102.066 58.4492 101.773 58.4492C101.479 58.4492 101.186 58.4492 100.893 58.7415C100.599 58.7415 100.306 59.0337 100.306 59.0337C100.013 59.326 100.013 59.326 100.013 59.6182C100.013 59.9104 100.013 60.2027 100.306 60.4949C100.599 60.7872 100.893 60.7872 101.186 61.0794C101.479 61.0794 102.066 61.3717 102.652 61.3717C103.239 61.3717 103.826 61.6639 104.412 61.6639C104.999 61.6639 105.585 61.9562 105.879 62.2484C106.465 62.5407 106.759 62.5407 107.345 62.8329C107.932 63.1252 108.225 63.4174 108.225 64.0019C108.518 64.5864 108.518 64.8786 108.518 65.7554C108.518 66.6321 108.225 67.2166 107.932 67.8011C107.638 68.3856 107.052 68.6778 106.465 69.2623C106.172 69.8468 105.585 70.1391 104.999 70.1391C104.412 70.1391 103.532 70.4313 102.946 70.4313C102.066 70.4313 101.186 70.4313 100.599 70.1391C100.013 69.8468 99.133 69.5546 98.8397 69.2623C98.2531 68.9701 97.9598 68.3856 97.6665 67.8011C97.0799 67.2166 96.7866 66.6321 96.7866 65.7554H99.7195ZM109.691 56.4035H112.038V52.6043H114.971V56.6957H117.61V59.0337H114.971V66.3399C114.971 66.6321 114.971 66.9244 114.971 67.2166C114.971 67.5089 114.971 67.5089 115.264 67.8011C115.557 68.0934 115.557 68.0934 115.557 68.0934C115.851 68.0934 116.144 68.0934 116.437 68.0934C116.73 68.0934 116.73 68.0934 117.024 68.0934C117.317 68.0934 117.317 68.0934 117.61 68.0934V70.1391C117.317 70.1391 117.024 70.1391 116.73 70.1391C116.437 70.1391 116.144 70.1391 115.851 70.1391C114.971 70.1391 114.384 70.1391 114.091 69.8468C113.504 69.8468 113.211 69.5546 112.918 69.2623C112.624 68.9701 112.331 68.6778 112.331 68.0934C112.331 67.8011 112.038 67.2166 112.038 66.6321V58.7415H109.691V56.4035ZM119.663 56.4035H122.596V58.4492C122.89 57.5725 123.476 56.988 124.356 56.6957C125.236 56.4035 125.823 56.1112 126.702 56.1112C127.876 56.1112 128.755 56.4035 129.635 56.6957C130.515 56.988 131.102 57.5725 131.688 58.157C132.275 58.7415 132.568 59.6182 132.861 60.4949C133.155 61.3717 133.155 62.2484 133.155 63.4174C133.155 64.2942 133.155 65.1709 132.861 66.0476C132.568 66.9244 132.275 67.5089 131.688 68.3856C131.102 68.9701 130.515 69.5546 129.929 69.8468C129.049 70.1391 128.462 70.4313 127.289 70.4313C126.996 70.4313 126.409 70.4313 126.116 70.4313C125.823 70.4313 125.236 70.1391 124.943 70.1391C124.649 69.8468 124.063 69.8468 123.769 69.5546C123.476 69.2623 123.183 68.9701 122.89 68.6778V75.3995H119.957V56.4035H119.663ZM130.222 63.4174C130.222 62.8329 130.222 62.2484 129.929 61.6639C129.635 61.0794 129.635 60.4949 129.342 60.2027C129.049 59.9105 128.755 59.326 128.169 59.0337C127.582 58.7415 127.289 58.7415 126.409 58.7415C125.236 58.7415 124.063 59.0337 123.476 59.9105C122.89 60.7872 122.596 61.9562 122.596 63.4174C122.596 64.0019 122.596 64.8786 122.89 65.1709C123.183 65.7554 123.183 66.3399 123.769 66.6321C124.063 66.9244 124.356 67.5089 124.943 67.5089C125.529 67.8011 125.822 67.8011 126.409 67.8011C126.996 67.8011 127.582 67.8011 128.169 67.5089C128.755 67.2166 129.049 66.9244 129.342 66.3399C129.635 65.7554 129.929 65.4631 129.929 64.8786C129.929 64.5864 130.222 64.0019 130.222 63.4174ZM135.501 51.4353H138.434V54.3578H135.501V51.4353ZM135.501 56.4035H138.434V70.1391H135.501V56.4035ZM141.074 51.4353H144.007V70.1391H141.074V51.4353ZM153.099 70.4313C151.925 70.4313 151.046 70.1391 150.166 69.8468C149.286 69.5546 148.699 68.9701 148.113 68.3856C147.526 67.8011 146.94 66.9244 146.646 66.0476C146.353 65.1709 146.06 64.2942 146.06 63.1252C146.06 61.9562 146.353 61.0794 146.646 60.2027C146.94 59.326 147.526 58.4492 148.113 57.8647C148.699 57.2802 149.286 56.6957 150.166 56.4035C151.046 56.1112 151.925 55.819 153.099 55.819C154.272 55.819 155.152 56.1112 156.032 56.4035C156.911 56.6957 157.498 57.2802 158.085 57.8647C158.671 58.4492 159.258 59.326 159.551 60.2027C159.844 61.0794 160.138 61.9562 160.138 63.1252C160.138 64.2942 159.844 65.1709 159.551 66.0476C159.258 66.9244 158.671 67.8011 158.085 68.3856C157.498 68.9701 156.911 69.5546 156.032 69.8468C155.152 70.1391 154.272 70.4313 153.099 70.4313ZM153.099 68.0934C153.685 68.0934 154.272 68.0934 154.858 67.8011C155.445 67.5089 155.738 67.2166 156.032 66.6321C156.325 66.0476 156.618 65.7554 156.618 65.1709C156.618 64.5864 156.911 64.0019 156.911 63.4174C156.911 62.8329 156.911 62.2484 156.618 61.6639C156.618 61.0794 156.325 60.4949 156.032 60.2027C155.738 59.9105 155.445 59.326 154.858 59.0337C154.272 58.7415 153.685 58.7415 153.099 58.7415C152.512 58.7415 151.925 58.7415 151.339 59.0337C150.752 59.326 150.459 59.6182 150.166 60.2027C149.872 60.7872 149.579 61.0794 149.579 61.6639C149.579 62.2484 149.286 62.8329 149.286 63.4174C149.286 64.0019 149.286 64.5864 149.579 65.1709C149.579 65.7554 149.872 66.3399 150.166 66.6321C150.459 67.2166 150.752 67.5089 151.339 67.8011C151.925 67.8011 152.512 68.0934 153.099 68.0934ZM161.018 56.4035H163.364V52.6043H166.297V56.6957H168.936V59.0337H166.297V66.3399C166.297 66.6321 166.297 66.9244 166.297 67.2166C166.297 67.5089 166.297 67.5089 166.59 67.8011C166.883 68.0934 166.883 68.0934 166.883 68.0934C167.177 68.0934 167.47 68.0934 167.763 68.0934C168.057 68.0934 168.057 68.0934 168.35 68.0934C168.643 68.0934 168.643 68.0934 168.936 68.0934V70.1391C168.643 70.1391 168.35 70.1391 168.057 70.1391C167.763 70.1391 167.47 70.1391 167.177 70.1391C166.297 70.1391 165.71 70.1391 165.417 69.8468C164.83 69.8468 164.537 69.5546 164.244 69.2623C163.95 68.9701 163.657 68.6778 163.657 68.0934C163.657 67.8011 163.364 67.2166 163.364 66.6321V58.7415H161.018V56.4035Z" fill="#191919"/>
<path d="M55.139 51.4353H41.3543L37.2482 38.2842L32.8488 51.4353H19.3574L30.2092 59.3259L26.1031 72.477L37.2482 64.2941L48.1 72.477L43.9939 59.3259L55.139 51.4353Z" fill="#00B67A"/>
<path d="M44.8736 62.2484L43.9938 59.3259L37.248 64.2941L44.8736 62.2484Z" fill="#005128"/>
<path d="M47.5134 80.6599H19.3574V108.716H47.5134V80.6599Z" fill="#00B67A"/>
<path d="M77.7224 80.6599H49.5664V108.716H77.7224V80.6599Z" fill="#00B67A"/>
<path d="M108.225 80.6599H80.0688V108.716H108.225V80.6599Z" fill="#00B67A"/>
<path d="M138.434 80.6599H110.278V108.716H138.434V80.6599Z" fill="#00B67A"/>
<path d="M168.936 80.6599H140.78V108.716H168.936V80.6599Z" fill="#DCDCE6"/>
<path d="M140.78 80.6599H154.858V108.423H140.78V80.6599Z" fill="#00B67A"/>
<path d="M33.142 99.3638L37.5414 98.1948L39.3011 103.747L33.142 99.3638ZM43.1139 92.3499H35.4883L33.142 85.3359L30.7957 92.3499H23.4634L29.6225 96.7335L27.2762 103.747L33.4353 99.3638L37.2481 96.7335L43.1139 92.3499Z" fill="white"/>
<path d="M63.6446 99.3638L68.044 98.1948L69.8037 103.747L63.6446 99.3638ZM73.3232 92.3499H65.6976L63.3513 85.3359L61.005 92.3499H53.3794L59.5385 96.7335L57.1922 103.747L63.3513 99.3638L67.1641 96.7335L73.3232 92.3499Z" fill="white"/>
<path d="M94.147 99.3638L98.5464 98.1948L100.306 103.747L94.147 99.3638ZM103.826 92.3499H96.2001L93.8538 85.3359L91.5074 92.3499H83.8818L90.041 96.7335L87.9879 103.747L94.147 99.3638L97.9598 96.7335L103.826 92.3499Z" fill="white"/>
<path d="M124.356 99.3638L128.755 98.1948L130.515 103.747L124.356 99.3638ZM134.328 92.3499H126.702L124.356 85.3359L122.009 92.3499H114.384L120.543 96.7335L118.197 103.747L124.356 99.3638L128.169 96.7335L134.328 92.3499Z" fill="white"/>
<path d="M154.858 99.3638L159.258 98.1948L161.017 103.747L154.858 99.3638ZM164.537 92.3499H156.911L154.565 85.3359L152.512 92.3499H144.886L151.045 96.7335L148.699 103.747L154.858 99.3638L158.671 96.7335L164.537 92.3499Z" fill="white"/>
</g>
</svg>
